<?xml version="1.0" encoding="iso-8859-1"?>
<!-- Generator: Adobe Illustrator 19.0.0, SVG Export Plug-In . SVG Version: 6.00 Build 0)  -->
<svg version="1.1" id="Layer_1" xmlns="http://www.w3.org/2000/svg" xmlns:xlink="http://www.w3.org/1999/xlink" x="0px" y="0px"
	 viewBox="0 0 512 512" style="enable-background:new 0 0 512 512;" xml:space="preserve">
<rect x="478.242" style="fill:#F1ECDE;" width="33.758" height="512"/>
<polygon style="fill:#F16831;" points="512,0 512,512 478.242,512 444.484,256 478.242,0 "/>
<polygon style="fill:#F1ECDE;" points="478.242,0 478.242,512 444.484,512 410.725,256 444.484,0 "/>
<polygon style="fill:#E2D8BD;" points="444.484,0 444.484,512 410.725,512 376.967,256 410.725,0 "/>
<path style="fill:#F16831;" d="M410.725,0v512H16.879C7.562,512,0,504.438,0,495.121c0-9.317,7.562-16.879,16.879-16.879V33.758
	C7.562,33.758,0,26.196,0,16.879S7.562,0,16.879,0H410.725z"/>
<path style="fill:#F58E42;" d="M376.967,67.516v376.967c-18.646,0-33.758,15.112-33.758,33.758H84.396
	c0-18.646-15.112-33.758-33.758-33.758V67.516c18.646,0,33.758-15.112,33.758-33.758h258.813
	C343.209,52.404,358.321,67.516,376.967,67.516z"/>
<g>
	<path style="fill:#68615B;" d="M299.883,367.838l-16.879-41.687l-15.646,6.334l16.879,41.687c1.33,3.284,4.489,5.275,7.826,5.275
		c1.054,0,2.127-0.199,3.164-0.619C299.548,377.078,301.632,372.158,299.883,367.838z"/>
	<path style="fill:#68615B;" d="M127.721,367.838l16.879-41.687l15.646,6.334l-16.879,41.687c-1.33,3.284-4.489,5.275-7.826,5.275
		c-1.054,0-2.127-0.199-3.164-0.619C128.056,377.078,125.972,372.158,127.721,367.838z"/>
</g>
<g>
	<path style="fill:#440852;" d="M287.297,214.139h-146.99c-13.832,16.588-22.153,37.931-22.153,61.217
		c0,52.825,42.823,95.648,95.648,95.648s95.648-42.823,95.648-95.648C309.451,252.069,301.129,230.726,287.297,214.139z"/>
	<path style="fill:#440852;" d="M213.802,110.051c-38.779,0-70.33,31.549-70.33,70.33v33.758h16.879V180.38
		c0-29.472,23.978-53.451,53.451-53.451s53.451,23.978,53.451,53.451v33.758h16.879V180.38
		C284.132,141.6,252.581,110.051,213.802,110.051z"/>
</g>
<path style="fill:#68615B;" d="M297.073,222.578H130.532c-4.661,0-8.44-3.778-8.44-8.44s3.779-8.44,8.44-8.44h166.541
	c4.662,0,8.44,3.778,8.44,8.44S301.735,222.578,297.073,222.578z"/>
<g>
</g>
<g>
</g>
<g>
</g>
<g>
</g>
<g>
</g>
<g>
</g>
<g>
</g>
<g>
</g>
<g>
</g>
<g>
</g>
<g>
</g>
<g>
</g>
<g>
</g>
<g>
</g>
<g>
</g>
</svg>
