<?xml version="1.0" encoding="iso-8859-1"?>
<!-- Generator: Adobe Illustrator 19.0.0, SVG Export Plug-In . SVG Version: 6.00 Build 0)  -->
<svg version="1.1" id="Layer_1" xmlns="http://www.w3.org/2000/svg" xmlns:xlink="http://www.w3.org/1999/xlink" x="0px" y="0px"
	 viewBox="0 0 512 512" style="enable-background:new 0 0 512 512;" xml:space="preserve">
<path style="fill:#A3875E;" d="M118.689,109.145c9.535-7.179,23.083-5.272,30.262,4.263s5.272,23.083-4.275,30.262
	c-9.535,7.179-23.083,5.272-30.262-4.263C107.234,129.872,109.154,116.311,118.689,109.145z"/>
<path style="fill:#FFF3E6;" d="M479.646,464.843c7.204,9.56,5.285,23.145-4.275,30.336c-9.56,7.191-23.132,5.272-30.324-4.287
	L275.281,265.363l34.611-26.061L479.646,464.843z"/>
<path style="fill:#A3875E;" d="M366.091,163.424c8.911,11.84,6.531,28.666-5.309,37.578L344.13,213.54l-78.658-104.495
	c-40.793-54.217-117.806-65.072-172.01-24.279l0.012,0.025L64.784,46.677C139.902-9.87,247.026,5.248,303.573,80.366
	L366.091,163.424z"/>
<path style="fill:#DBB67E;" d="M253.856,281.491c-14.059,10.569-34.3,4.998-40.968-11.267l-24.067-58.766
	c-0.386,1.321-0.785,2.642-1.197,3.963c-5.509,17.574-13.186,33.477-22.272,47.087c-33.228-42.164-89.401-56.161-137.349-37.578
	c-0.274-17.923,2.48-37.316,8.612-56.871c11.666-37.166,33.004-66.88,56.909-83.194l-0.05-0.075l-0.012-0.025
	c54.204-40.793,131.217-29.938,172.01,24.279L344.13,213.54l-34.237,25.762l-34.611,26.061L253.856,281.491z M114.414,139.406
	c7.179,9.535,20.727,11.442,30.262,4.263c9.547-7.179,11.454-20.727,4.275-30.262c-7.179-9.535-20.727-11.442-30.262-4.263
	C109.154,116.311,107.234,129.872,114.414,139.406z"/>
<path style="fill:#A3875E;" d="M28.004,224.931c47.947-18.583,104.121-4.587,137.349,37.578
	c-24.703,37.017-59.85,57.083-90.336,47.524C45.802,300.859,28.614,266.909,28.004,224.931z"/>
<path d="M309.477,188.229c2.45,3.253,6.186,4.968,9.967,4.968c2.61,0,5.241-0.816,7.487-2.506c5.499-4.14,6.601-11.955,2.462-17.454
	l-2.328-3.092c-4.14-5.499-11.954-6.599-17.454-2.462c-5.499,4.14-6.601,11.955-2.462,17.454L309.477,188.229z"/>
<path d="M136.44,92.667c-9.01-1.268-17.979,1.047-25.24,6.516c-7.275,5.468-11.982,13.444-13.258,22.461
	c-1.274,9.017,1.038,17.987,6.515,25.26c6.688,8.882,16.913,13.563,27.26,13.563c7.133,0,14.326-2.227,20.45-6.836
	c7.279-5.474,11.987-13.453,13.26-22.467c1.271-9.012-1.043-17.98-6.52-25.252C153.432,98.639,145.453,93.935,136.44,92.667z
	 M140.743,127.68c-0.34,2.418-1.605,4.558-3.558,6.027c-0.001,0.001-0.004,0.003-0.005,0.004c-4.029,3.032-9.775,2.226-12.809-1.803
	c-1.468-1.949-2.088-4.356-1.746-6.778c0.342-2.419,1.604-4.559,3.561-6.03c1.603-1.208,3.513-1.843,5.484-1.843
	c0.43,0,0.861,0.03,1.295,0.091c2.418,0.34,4.559,1.603,6.029,3.555C140.464,122.856,141.084,125.263,140.743,127.68z"/>
<path d="M81.641,259.382c-4.143-5.496-11.956-6.594-17.455-2.45c-5.496,4.143-6.594,11.959-2.45,17.455l2.443,3.241
	c2.45,3.25,6.183,4.962,9.962,4.962c2.612,0,5.246-0.818,7.493-2.511c5.496-4.143,6.594-11.959,2.45-17.455L81.641,259.382z"/>
<path d="M462.423,512c7.347,0,14.464-2.366,20.44-6.861c7.286-5.48,12-13.472,13.272-22.499c1.273-9.03-1.049-18.015-6.532-25.291
	L327.346,241.766l24.278-18.268c0.001-0.001,0.003-0.002,0.004-0.002l0,0l16.648-12.536c8.387-6.312,13.813-15.512,15.283-25.904
	c1.469-10.396-1.198-20.741-7.511-29.127l-62.516-83.057C252.846-7.743,137.895-23.961,57.288,36.72
	c-5.5,4.139-6.602,11.954-2.462,17.453l21.33,28.336c-22.505,19.218-40.92,48.326-51.433,81.822
	c-6.363,20.291-9.45,40.631-9.183,60.456c0,0.049-0.006,0.096-0.006,0.145c0,0.047,0.006,0.093,0.007,0.141c0,0.014,0,0.027,0,0.041
	c0.715,49.144,22.074,86.239,55.746,96.813c6.207,1.947,12.603,2.893,19.094,2.893c29.91-0.003,61.727-20.117,85.202-55.192
	c0.031-0.045,0.061-0.09,0.092-0.135c0.014-0.021,0.029-0.041,0.042-0.062c5.04-7.55,9.567-15.566,13.55-23.992l12.088,29.515
	c4.654,11.352,14.106,19.731,25.935,22.985c11.832,3.257,24.244,0.894,34.059-6.489l11.468-8.632l162.268,215.568
	c5.479,7.284,13.466,11.997,22.489,13.274C459.196,511.886,460.815,512,462.423,512z M78.749,298.142
	c-20.867-6.552-35.236-31.408-37.858-64.455c39.038-11.609,80.835-0.234,108.644,29.526
	C127.986,291.463,100.877,305.08,78.749,298.142z M246.365,271.529c-3.591,2.701-8.132,3.567-12.461,2.374
	c-4.326-1.19-7.783-4.255-9.484-8.403l-24.067-58.766c-2.007-4.901-6.895-8.003-12.182-7.722c-5.29,0.275-9.826,3.864-11.313,8.948
	c-0.366,1.253-0.744,2.504-1.127,3.734c-3.317,10.58-7.501,20.594-12.462,29.952c-16.11-15.663-35.822-26.876-57.863-32.751
	c-20.962-5.586-43.215-5.854-64.247-0.988c1.133-11.951,3.609-24.194,7.349-36.116c10.437-33.252,29.407-61.182,52.043-76.632
	c0.616-0.42,1.182-0.887,1.696-1.392c23.323-17.04,51.852-24.193,80.508-20.15c29.192,4.119,55.032,19.362,72.76,42.922
	l30.272,40.215c4.139,5.499,11.956,6.599,17.453,2.462c5.5-4.139,6.602-11.954,2.463-17.453l-30.269-40.212
	c-21.731-28.881-53.408-47.567-89.194-52.616c-31.641-4.462-63.139,2.211-89.973,18.837L82.53,49.526
	c68.824-43.824,161.191-27.943,211.087,38.334l62.515,83.057c4.765,6.33,3.489,15.358-2.848,20.126l-16.643,12.532
	c-0.001,0.001-0.003,0.001-0.004,0.002L302.4,229.341c-0.001,0.001-0.003,0.001-0.004,0.002l-34.611,26.061
	c-0.005,0.004-0.01,0.009-0.015,0.012L246.365,271.529z M455.004,483.396L292.734,267.823l14.697-11.066l162.261,215.587
	c1.479,1.962,2.104,4.382,1.761,6.814s-1.613,4.584-3.575,6.061c-1.963,1.477-4.387,2.099-6.813,1.757
	C458.635,486.633,456.484,485.361,455.004,483.396z"/>
<g>
</g>
<g>
</g>
<g>
</g>
<g>
</g>
<g>
</g>
<g>
</g>
<g>
</g>
<g>
</g>
<g>
</g>
<g>
</g>
<g>
</g>
<g>
</g>
<g>
</g>
<g>
</g>
<g>
</g>
</svg>
